<svg xmlns="http://www.w3.org/2000/svg" xmlns:xlink="http://www.w3.org/1999/xlink" width="1080" zoomAndPan="magnify" viewBox="0 0 810 809.999993" height="1080" preserveAspectRatio="xMidYMid meet" version="1.0"><defs><clipPath id="58b68f6c3a"><path d="M 0 0 L 810 0 L 810 808.5 L 0 808.5 Z M 0 0 " clip-rule="nonzero"/></clipPath></defs><g clip-path="url(#58b68f6c3a)"><path fill="#ffde59" d="M 405.761719 0.257812 C 182.035156 0.257812 0 181.460938 0 404.160156 C 0 626.859375 182.035156 808.058594 405.761719 808.058594 C 629.488281 808.058594 811.523438 626.859375 811.523438 404.160156 C 811.523438 181.460938 629.488281 0.257812 405.761719 0.257812 M 405.761719 50.753906 C 477.429688 50.753906 544.066406 72.152344 599.914062 108.664062 C 580.488281 119.402344 562.480469 142.039062 562.480469 190.089844 C 562.480469 215.644531 579.980469 245.273438 600.21875 279.601562 C 624.515625 320.808594 654.636719 372.046875 647.089844 409.050781 C 638.765625 433.539062 617.675781 489.132812 594.796875 548.453125 L 489.957031 248.558594 C 492.085938 248.003906 494.46875 247.648438 496.492188 246.988281 C 509.789062 242.597656 516.9375 228.316406 512.523438 215.089844 C 508.058594 201.859375 493.757812 194.84375 480.417969 199.128906 C 458.808594 206.300781 419.710938 206.152344 396.230469 206.09375 L 382.128906 206.09375 C 358.792969 206.152344 319.542969 206.300781 297.933594 199.128906 C 284.789062 194.683594 270.394531 201.863281 265.925781 215.089844 C 261.464844 228.316406 268.664062 242.597656 281.953125 246.988281 C 292.65625 250.570312 305.28125 252.496094 318.175781 253.90625 L 380.554688 415.363281 L 321.566406 563.496094 L 220.785156 249.664062 C 224.480469 248.8125 228.4375 248.152344 231.839844 246.988281 C 245.128906 242.597656 252.328125 228.316406 247.863281 215.089844 C 243.40625 201.859375 229.105469 194.683594 215.816406 199.128906 C 194.253906 206.300781 155.050781 206.09375 131.566406 206.09375 L 124.617188 206.09375 C 120.050781 206.09375 116.292969 205.738281 112.445312 205.445312 C 176.398438 112.140625 283.984375 50.753906 405.761719 50.753906 M 50.722656 404.160156 C 50.722656 364.472656 57.617188 326.410156 69.789062 290.757812 L 225.398438 708.042969 C 121.0625 646.394531 50.722656 533.457031 50.722656 404.160156 M 304.78125 742.824219 L 407.433594 484.9375 L 507.046875 742.777344 C 474.945312 752.273438 440.960938 757.566406 405.761719 757.566406 C 370.664062 757.566406 336.824219 752.273438 304.78125 742.824219 M 587.289062 707.285156 C 620.15625 623.421875 676.757812 478.167969 693.742188 429.046875 L 694.40625 429.253906 C 695.117188 427.234375 695.875 424.609375 696.382812 421.523438 C 702.113281 405.667969 706.984375 391.1875 710.894531 378.96875 C 723.425781 339.527344 731.386719 304.847656 735.539062 274.152344 C 751.667969 314.4375 760.800781 358.214844 760.800781 404.15625 C 760.800781 532.949219 691.011719 645.542969 587.289062 707.285156 " fill-opacity="1" fill-rule="nonzero"/></g></svg>