<svg xmlns="http://www.w3.org/2000/svg" xmlns:xlink="http://www.w3.org/1999/xlink" width="370" zoomAndPan="magnify" viewBox="0 0 277.5 277.500005" height="370" preserveAspectRatio="xMidYMid meet" version="1.2"><defs><clipPath id="c75f2a5cb7"><path d="M 102 22 L 217.734375 22 L 217.734375 183 L 102 183 Z M 102 22 "/></clipPath><clipPath id="0ebbdac760"><path d="M 59.019531 22 L 173 22 L 173 138 L 59.019531 138 Z M 59.019531 22 "/></clipPath></defs><g id="31f026bea4"><g style="fill:#ffffff;fill-opacity:1;"><g transform="translate(44.121498, 235.40478)"><path style="stroke:none" d="M 4.96875 1.40625 L 0.453125 1.40625 L 7.75 -19.078125 L 11.71875 -19.078125 L 18.96875 1.40625 L 15.234375 1.40625 L 13.96875 -2.84375 L 6.375 -2.84375 Z M 7.5 -5.25 L 12.75 -5.25 L 10.203125 -13.9375 L 10.140625 -13.9375 Z M 7.5 -5.25 "/></g></g><g style="fill:#ffffff;fill-opacity:1;"><g transform="translate(63.777768, 235.40478)"><path style="stroke:none" d="M 5.703125 -1.578125 L 15.03125 -1.578125 L 15.03125 1.4375 L 1.15625 1.4375 L 1.15625 -19.046875 L 5.703125 -19.046875 Z M 5.703125 -1.578125 "/></g></g><g style="fill:#ffffff;fill-opacity:1;"><g transform="translate(79.502789, 235.40478)"><path style="stroke:none" d="M 4.96875 1.40625 L 0.453125 1.40625 L 7.75 -19.078125 L 11.71875 -19.078125 L 18.96875 1.40625 L 15.234375 1.40625 L 13.96875 -2.84375 L 6.375 -2.84375 Z M 7.5 -5.25 L 12.75 -5.25 L 10.203125 -13.9375 L 10.140625 -13.9375 Z M 7.5 -5.25 "/></g></g><g style="fill:#ffffff;fill-opacity:1;"><g transform="translate(99.159059, 235.40478)"><path style="stroke:none" d="M 6.125 1.40625 L 1.15625 1.40625 L 1.15625 -19.078125 L 6.125 -19.078125 L 13.5625 -4.890625 L 13.5625 -19.078125 L 17.671875 -19.078125 L 17.671875 1.40625 L 13.34375 1.40625 L 6.125 -11.40625 Z M 6.125 1.40625 "/></g></g><g style="fill:#ffffff;fill-opacity:1;"><g transform="translate(117.804439, 235.40478)"><path style="stroke:none" d=""/></g></g><g style="fill:#ffffff;fill-opacity:1;"><g transform="translate(124.936864, 235.40478)"><path style="stroke:none" d="M 9.8125 -19.046875 L 14.1875 -19.046875 L 14.1875 -4.4375 C 14.1875 -2.269531 13.632812 -0.65625 12.53125 0.40625 C 11.425781 1.46875 9.84375 2 7.78125 2 C 6.070312 2 4.757812 1.753906 3.84375 1.265625 C 2.925781 0.773438 2.253906 0.140625 1.828125 -0.640625 C 1.398438 -1.429688 1.144531 -2.316406 1.0625 -3.296875 C 0.988281 -4.285156 0.953125 -5.265625 0.953125 -6.234375 L 4.9375 -6.234375 C 4.9375 -5.429688 4.957031 -4.726562 5 -4.125 C 5.050781 -3.53125 5.160156 -3.03125 5.328125 -2.625 C 5.503906 -2.21875 5.753906 -1.914062 6.078125 -1.71875 C 6.410156 -1.53125 6.859375 -1.4375 7.421875 -1.4375 C 7.984375 -1.4375 8.421875 -1.519531 8.734375 -1.6875 C 9.054688 -1.851562 9.296875 -2.070312 9.453125 -2.34375 C 9.609375 -2.613281 9.707031 -2.929688 9.75 -3.296875 C 9.789062 -3.660156 9.8125 -4.039062 9.8125 -4.4375 Z M 9.8125 -19.046875 "/></g></g><g style="fill:#ffffff;fill-opacity:1;"><g transform="translate(140.324912, 235.40478)"><path style="stroke:none" d="M 11.296875 1.40625 L 7.140625 1.40625 C 6.515625 1.40625 5.84375 1.3125 5.125 1.125 C 4.40625 0.9375 3.734375 0.617188 3.109375 0.171875 C 2.492188 -0.265625 1.984375 -0.835938 1.578125 -1.546875 C 1.179688 -2.253906 0.984375 -3.132812 0.984375 -4.1875 L 0.984375 -12.984375 C 0.984375 -13.898438 1.160156 -14.734375 1.515625 -15.484375 C 1.867188 -16.234375 2.347656 -16.875 2.953125 -17.40625 C 3.566406 -17.9375 4.273438 -18.347656 5.078125 -18.640625 C 5.890625 -18.929688 6.742188 -19.078125 7.640625 -19.078125 L 10.5 -19.078125 C 11.425781 -19.078125 12.28125 -18.929688 13.0625 -18.640625 C 13.851562 -18.347656 14.53125 -17.9375 15.09375 -17.40625 C 15.664062 -16.875 16.109375 -16.238281 16.421875 -15.5 C 16.742188 -14.757812 16.90625 -13.925781 16.90625 -13 L 16.90625 -4.109375 C 16.90625 -3.273438 16.734375 -2.515625 16.390625 -1.828125 C 16.046875 -1.148438 15.597656 -0.570312 15.046875 -0.09375 C 14.492188 0.382812 13.882812 0.753906 13.21875 1.015625 C 12.550781 1.273438 11.910156 1.40625 11.296875 1.40625 Z M 9.78125 -1.96875 C 10.675781 -1.96875 11.394531 -2.207031 11.9375 -2.6875 C 12.476562 -3.164062 12.75 -3.851562 12.75 -4.75 L 12.75 -12.703125 C 12.75 -13.054688 12.6875 -13.390625 12.5625 -13.703125 C 12.445312 -14.023438 12.265625 -14.304688 12.015625 -14.546875 C 11.773438 -14.796875 11.472656 -14.988281 11.109375 -15.125 C 10.742188 -15.269531 10.3125 -15.34375 9.8125 -15.34375 L 8.234375 -15.34375 C 7.722656 -15.34375 7.273438 -15.265625 6.890625 -15.109375 C 6.515625 -14.960938 6.191406 -14.765625 5.921875 -14.515625 C 5.660156 -14.273438 5.460938 -13.992188 5.328125 -13.671875 C 5.203125 -13.359375 5.140625 -13.023438 5.140625 -12.671875 L 5.140625 -4.75 C 5.140625 -3.976562 5.351562 -3.320312 5.78125 -2.78125 C 6.21875 -2.238281 6.957031 -1.96875 8 -1.96875 Z M 9.78125 -1.96875 "/></g></g><g style="fill:#ffffff;fill-opacity:1;"><g transform="translate(158.436763, 235.40478)"><path style="stroke:none" d="M 1.046875 -0.734375 L 1.046875 -5.25 C 2.054688 -4.59375 3.171875 -4.019531 4.390625 -3.53125 C 5.617188 -3.050781 6.960938 -2.8125 8.421875 -2.8125 C 8.929688 -2.8125 9.425781 -2.84375 9.90625 -2.90625 C 10.382812 -2.96875 10.8125 -3.066406 11.1875 -3.203125 C 11.570312 -3.347656 11.890625 -3.539062 12.140625 -3.78125 C 12.398438 -4.03125 12.554688 -4.34375 12.609375 -4.71875 C 12.671875 -5.164062 12.566406 -5.550781 12.296875 -5.875 C 12.023438 -6.207031 11.691406 -6.484375 11.296875 -6.703125 C 10.898438 -6.929688 10.484375 -7.113281 10.046875 -7.25 C 9.617188 -7.394531 9.265625 -7.5 8.984375 -7.5625 C 7.523438 -7.9375 6.34375 -8.265625 5.4375 -8.546875 C 4.53125 -8.835938 3.945312 -9.0625 3.6875 -9.21875 C 1.9375 -10.1875 1.0625 -11.570312 1.0625 -13.375 C 1.0625 -14.332031 1.289062 -15.164062 1.75 -15.875 C 2.207031 -16.582031 2.800781 -17.175781 3.53125 -17.65625 C 4.269531 -18.132812 5.085938 -18.488281 5.984375 -18.71875 C 6.878906 -18.957031 7.769531 -19.078125 8.65625 -19.078125 C 9.882812 -19.078125 11.078125 -18.910156 12.234375 -18.578125 C 13.398438 -18.253906 14.484375 -17.742188 15.484375 -17.046875 L 15.484375 -13.125 C 15.085938 -13.457031 14.648438 -13.773438 14.171875 -14.078125 C 13.691406 -14.390625 13.191406 -14.660156 12.671875 -14.890625 C 12.148438 -15.117188 11.609375 -15.289062 11.046875 -15.40625 C 10.484375 -15.53125 9.929688 -15.5625 9.390625 -15.5 C 8.460938 -15.414062 7.726562 -15.21875 7.1875 -14.90625 C 6.644531 -14.59375 6.375 -14.082031 6.375 -13.375 C 6.375 -13.019531 6.53125 -12.703125 6.84375 -12.421875 C 7.164062 -12.140625 7.546875 -11.890625 7.984375 -11.671875 C 8.429688 -11.453125 8.875 -11.269531 9.3125 -11.125 C 9.75 -10.976562 10.097656 -10.863281 10.359375 -10.78125 C 11.316406 -10.5 12.195312 -10.21875 13 -9.9375 C 13.8125 -9.664062 14.503906 -9.304688 15.078125 -8.859375 C 15.660156 -8.421875 16.109375 -7.859375 16.421875 -7.171875 C 16.734375 -6.492188 16.867188 -5.617188 16.828125 -4.546875 C 16.785156 -3.484375 16.5 -2.578125 15.96875 -1.828125 C 15.4375 -1.078125 14.765625 -0.460938 13.953125 0.015625 C 13.148438 0.492188 12.269531 0.84375 11.3125 1.0625 C 10.363281 1.289062 9.457031 1.40625 8.59375 1.40625 C 7.34375 1.40625 6.039062 1.21875 4.6875 0.84375 C 3.34375 0.46875 2.128906 -0.0546875 1.046875 -0.734375 Z M 1.046875 -0.734375 "/></g></g><g style="fill:#ffffff;fill-opacity:1;"><g transform="translate(176.295888, 235.40478)"><path style="stroke:none" d="M 6.09375 -7.8125 L 6.09375 1.40625 L 1.15625 1.40625 L 1.15625 -19.078125 L 6.09375 -19.078125 L 6.09375 -10.921875 L 13.28125 -10.921875 L 13.28125 -19.078125 L 17.109375 -19.078125 L 17.109375 1.40625 L 13.28125 1.40625 L 13.28125 -7.8125 Z M 6.09375 -7.8125 "/></g></g><g style="fill:#ffffff;fill-opacity:1;"><g transform="translate(194.463895, 235.40478)"><path style="stroke:none" d="M 5.5625 -18.9375 L 5.5625 -5.484375 C 5.5625 -5.210938 5.59375 -4.9375 5.65625 -4.65625 C 5.726562 -4.375 5.851562 -4.109375 6.03125 -3.859375 C 6.207031 -3.609375 6.441406 -3.398438 6.734375 -3.234375 C 7.035156 -3.078125 7.429688 -3 7.921875 -3 L 10.734375 -3 C 11.203125 -3 11.59375 -3.078125 11.90625 -3.234375 C 12.226562 -3.398438 12.488281 -3.609375 12.6875 -3.859375 C 12.882812 -4.109375 13.023438 -4.390625 13.109375 -4.703125 C 13.191406 -5.015625 13.234375 -5.328125 13.234375 -5.640625 L 13.234375 -18.9375 L 17.75 -18.9375 L 17.75 -4.65625 C 17.75 -3.59375 17.578125 -2.675781 17.234375 -1.90625 C 16.890625 -1.144531 16.425781 -0.519531 15.84375 -0.03125 C 15.257812 0.457031 14.582031 0.816406 13.8125 1.046875 C 13.050781 1.285156 12.238281 1.40625 11.375 1.40625 L 7.640625 1.40625 C 6.628906 1.40625 5.703125 1.238281 4.859375 0.90625 C 4.015625 0.582031 3.296875 0.128906 2.703125 -0.453125 C 2.117188 -1.046875 1.675781 -1.742188 1.375 -2.546875 C 1.070312 -3.359375 0.953125 -4.25 1.015625 -5.21875 L 1.015625 -18.9375 Z M 5.5625 -18.9375 "/></g></g><g style="fill:#ffffff;fill-opacity:1;"><g transform="translate(213.193507, 235.40478)"><path style="stroke:none" d="M 4.96875 1.40625 L 0.453125 1.40625 L 7.75 -19.078125 L 11.71875 -19.078125 L 18.96875 1.40625 L 15.234375 1.40625 L 13.96875 -2.84375 L 6.375 -2.84375 Z M 7.5 -5.25 L 12.75 -5.25 L 10.203125 -13.9375 L 10.140625 -13.9375 Z M 7.5 -5.25 "/></g></g><g style="fill:#ffffff;fill-opacity:1;"><g transform="translate(62.666922, 252.682028)"><path style="stroke:none" d="M 3.796875 -10.21875 C 4.648438 -10.21875 5.390625 -10.117188 6.015625 -9.921875 C 6.640625 -9.734375 7.117188 -9.398438 7.453125 -8.921875 C 7.785156 -8.453125 7.953125 -7.785156 7.953125 -6.921875 C 7.953125 -6.066406 7.785156 -5.394531 7.453125 -4.90625 C 7.117188 -4.425781 6.640625 -4.09375 6.015625 -3.90625 C 5.390625 -3.71875 4.648438 -3.625 3.796875 -3.625 L 2.0625 -3.625 L 2.0625 0 L 1.09375 0 L 1.09375 -10.21875 Z M 2.0625 -4.4375 L 3.796875 -4.4375 C 4.398438 -4.4375 4.941406 -4.492188 5.421875 -4.609375 C 5.910156 -4.722656 6.296875 -4.957031 6.578125 -5.3125 C 6.859375 -5.675781 7 -6.210938 7 -6.921875 C 7 -7.640625 6.859375 -8.171875 6.578125 -8.515625 C 6.296875 -8.867188 5.910156 -9.101562 5.421875 -9.21875 C 4.941406 -9.34375 4.398438 -9.40625 3.796875 -9.40625 L 2.0625 -9.40625 Z M 2.0625 -4.4375 "/></g></g><g style="fill:#ffffff;fill-opacity:1;"><g transform="translate(79.748247, 252.682028)"><path style="stroke:none" d="M 0.953125 -5.109375 C 0.953125 -6.109375 1.140625 -7 1.515625 -7.78125 C 1.890625 -8.570312 2.421875 -9.195312 3.109375 -9.65625 C 3.804688 -10.125 4.648438 -10.359375 5.640625 -10.359375 C 6.617188 -10.359375 7.457031 -10.125 8.15625 -9.65625 C 8.851562 -9.195312 9.382812 -8.570312 9.75 -7.78125 C 10.113281 -7 10.296875 -6.109375 10.296875 -5.109375 C 10.296875 -4.117188 10.113281 -3.226562 9.75 -2.4375 C 9.382812 -1.644531 8.851562 -1.015625 8.15625 -0.546875 C 7.457031 -0.0859375 6.617188 0.140625 5.640625 0.140625 C 4.648438 0.140625 3.804688 -0.0859375 3.109375 -0.546875 C 2.421875 -1.015625 1.890625 -1.644531 1.515625 -2.4375 C 1.140625 -3.226562 0.953125 -4.117188 0.953125 -5.109375 Z M 1.90625 -5.109375 C 1.90625 -4.265625 2.039062 -3.503906 2.3125 -2.828125 C 2.582031 -2.160156 2.992188 -1.632812 3.546875 -1.25 C 4.109375 -0.863281 4.804688 -0.671875 5.640625 -0.671875 C 6.472656 -0.671875 7.160156 -0.863281 7.703125 -1.25 C 8.253906 -1.632812 8.664062 -2.160156 8.9375 -2.828125 C 9.207031 -3.503906 9.34375 -4.265625 9.34375 -5.109375 C 9.34375 -5.960938 9.207031 -6.722656 8.9375 -7.390625 C 8.664062 -8.054688 8.253906 -8.582031 7.703125 -8.96875 C 7.160156 -9.351562 6.472656 -9.546875 5.640625 -9.546875 C 4.804688 -9.546875 4.109375 -9.351562 3.546875 -8.96875 C 2.992188 -8.582031 2.582031 -8.054688 2.3125 -7.390625 C 2.039062 -6.722656 1.90625 -5.960938 1.90625 -5.109375 Z M 1.90625 -5.109375 "/></g></g><g style="fill:#ffffff;fill-opacity:1;"><g transform="translate(99.320094, 252.682028)"><path style="stroke:none" d="M 2.0625 0 L 1.09375 0 L 1.09375 -10.21875 L 4.375 -10.21875 C 5.1875 -10.21875 5.878906 -10.132812 6.453125 -9.96875 C 7.023438 -9.8125 7.460938 -9.523438 7.765625 -9.109375 C 8.078125 -8.703125 8.234375 -8.117188 8.234375 -7.359375 C 8.234375 -6.609375 8.070312 -6.039062 7.75 -5.65625 C 7.4375 -5.269531 7.007812 -5.023438 6.46875 -4.921875 L 6.46875 -4.640625 L 7.640625 -4.640625 C 7.910156 -4.640625 8.097656 -4.582031 8.203125 -4.46875 C 8.316406 -4.363281 8.375 -4.191406 8.375 -3.953125 L 8.375 0 L 7.421875 0 L 7.421875 -4.203125 L 2.0625 -4.203125 Z M 2.0625 -9.40625 L 2.0625 -5.015625 L 4.375 -5.015625 C 4.976562 -5.015625 5.5 -5.054688 5.9375 -5.140625 C 6.375 -5.222656 6.707031 -5.421875 6.9375 -5.734375 C 7.164062 -6.054688 7.28125 -6.550781 7.28125 -7.21875 C 7.28125 -7.882812 7.164062 -8.367188 6.9375 -8.671875 C 6.707031 -8.984375 6.375 -9.179688 5.9375 -9.265625 C 5.5 -9.359375 4.976562 -9.40625 4.375 -9.40625 Z M 2.0625 -9.40625 "/></g></g><g style="fill:#ffffff;fill-opacity:1;"><g transform="translate(117.110929, 252.682028)"><path style="stroke:none" d="M 0.671875 -10.21875 L 8.796875 -10.21875 L 8.796875 -9.40625 L 5.21875 -9.40625 L 5.21875 0 L 4.265625 0 L 4.265625 -9.40625 L 0.671875 -9.40625 Z M 0.671875 -10.21875 "/></g></g><g style="fill:#ffffff;fill-opacity:1;"><g transform="translate(134.887284, 252.682028)"><path style="stroke:none" d="M 2.0625 0 L 1.09375 0 L 1.09375 -10.21875 L 7.65625 -10.21875 L 7.65625 -9.40625 L 2.0625 -9.40625 L 2.0625 -5.09375 L 6.921875 -5.390625 L 6.921875 -4.5625 L 2.0625 -4.265625 Z M 2.0625 0 "/></g></g><g style="fill:#ffffff;fill-opacity:1;"><g transform="translate(151.679022, 252.682028)"><path style="stroke:none" d="M 0.953125 -5.109375 C 0.953125 -6.109375 1.140625 -7 1.515625 -7.78125 C 1.890625 -8.570312 2.421875 -9.195312 3.109375 -9.65625 C 3.804688 -10.125 4.648438 -10.359375 5.640625 -10.359375 C 6.617188 -10.359375 7.457031 -10.125 8.15625 -9.65625 C 8.851562 -9.195312 9.382812 -8.570312 9.75 -7.78125 C 10.113281 -7 10.296875 -6.109375 10.296875 -5.109375 C 10.296875 -4.117188 10.113281 -3.226562 9.75 -2.4375 C 9.382812 -1.644531 8.851562 -1.015625 8.15625 -0.546875 C 7.457031 -0.0859375 6.617188 0.140625 5.640625 0.140625 C 4.648438 0.140625 3.804688 -0.0859375 3.109375 -0.546875 C 2.421875 -1.015625 1.890625 -1.644531 1.515625 -2.4375 C 1.140625 -3.226562 0.953125 -4.117188 0.953125 -5.109375 Z M 1.90625 -5.109375 C 1.90625 -4.265625 2.039062 -3.503906 2.3125 -2.828125 C 2.582031 -2.160156 2.992188 -1.632812 3.546875 -1.25 C 4.109375 -0.863281 4.804688 -0.671875 5.640625 -0.671875 C 6.472656 -0.671875 7.160156 -0.863281 7.703125 -1.25 C 8.253906 -1.632812 8.664062 -2.160156 8.9375 -2.828125 C 9.207031 -3.503906 9.34375 -4.265625 9.34375 -5.109375 C 9.34375 -5.960938 9.207031 -6.722656 8.9375 -7.390625 C 8.664062 -8.054688 8.253906 -8.582031 7.703125 -8.96875 C 7.160156 -9.351562 6.472656 -9.546875 5.640625 -9.546875 C 4.804688 -9.546875 4.109375 -9.351562 3.546875 -8.96875 C 2.992188 -8.582031 2.582031 -8.054688 2.3125 -7.390625 C 2.039062 -6.722656 1.90625 -5.960938 1.90625 -5.109375 Z M 1.90625 -5.109375 "/></g></g><g style="fill:#ffffff;fill-opacity:1;"><g transform="translate(171.25087, 252.682028)"><path style="stroke:none" d="M 7.234375 0 L 1.890625 0.140625 C 1.640625 0.148438 1.441406 0.0820312 1.296875 -0.0625 C 1.160156 -0.207031 1.09375 -0.40625 1.09375 -0.65625 L 1.09375 -10.21875 L 2.0625 -10.21875 L 2.0625 -0.671875 L 7.234375 -0.8125 Z M 7.234375 0 "/></g></g><g style="fill:#ffffff;fill-opacity:1;"><g transform="translate(187.318619, 252.682028)"><path style="stroke:none" d="M 6.453125 -10.21875 L 6.453125 -9.40625 L 4.1875 -9.40625 L 4.1875 -0.8125 L 6.453125 -0.8125 L 6.453125 0 L 0.953125 0 L 0.953125 -0.8125 L 3.234375 -0.8125 L 3.234375 -9.40625 L 0.953125 -9.40625 L 0.953125 -10.21875 Z M 6.453125 -10.21875 "/></g></g><g style="fill:#ffffff;fill-opacity:1;"><g transform="translate(203.053332, 252.682028)"><path style="stroke:none" d="M 0.953125 -5.109375 C 0.953125 -6.109375 1.140625 -7 1.515625 -7.78125 C 1.890625 -8.570312 2.421875 -9.195312 3.109375 -9.65625 C 3.804688 -10.125 4.648438 -10.359375 5.640625 -10.359375 C 6.617188 -10.359375 7.457031 -10.125 8.15625 -9.65625 C 8.851562 -9.195312 9.382812 -8.570312 9.75 -7.78125 C 10.113281 -7 10.296875 -6.109375 10.296875 -5.109375 C 10.296875 -4.117188 10.113281 -3.226562 9.75 -2.4375 C 9.382812 -1.644531 8.851562 -1.015625 8.15625 -0.546875 C 7.457031 -0.0859375 6.617188 0.140625 5.640625 0.140625 C 4.648438 0.140625 3.804688 -0.0859375 3.109375 -0.546875 C 2.421875 -1.015625 1.890625 -1.644531 1.515625 -2.4375 C 1.140625 -3.226562 0.953125 -4.117188 0.953125 -5.109375 Z M 1.90625 -5.109375 C 1.90625 -4.265625 2.039062 -3.503906 2.3125 -2.828125 C 2.582031 -2.160156 2.992188 -1.632812 3.546875 -1.25 C 4.109375 -0.863281 4.804688 -0.671875 5.640625 -0.671875 C 6.472656 -0.671875 7.160156 -0.863281 7.703125 -1.25 C 8.253906 -1.632812 8.664062 -2.160156 8.9375 -2.828125 C 9.207031 -3.503906 9.34375 -4.265625 9.34375 -5.109375 C 9.34375 -5.960938 9.207031 -6.722656 8.9375 -7.390625 C 8.664062 -8.054688 8.253906 -8.582031 7.703125 -8.96875 C 7.160156 -9.351562 6.472656 -9.546875 5.640625 -9.546875 C 4.804688 -9.546875 4.109375 -9.351562 3.546875 -8.96875 C 2.992188 -8.582031 2.582031 -8.054688 2.3125 -7.390625 C 2.039062 -6.722656 1.90625 -5.960938 1.90625 -5.109375 Z M 1.90625 -5.109375 "/></g></g><g clip-rule="nonzero" clip-path="url(#c75f2a5cb7)"><path style=" stroke:none;fill-rule:nonzero;fill:#9900cc;fill-opacity:1;" d="M 127.65625 105.253906 C 127.65625 111.4375 127.761719 116.988281 127.632812 122.535156 C 127.378906 133.414062 130.941406 142.679688 139.441406 149.589844 C 149.21875 157.535156 160.308594 159.164062 171.917969 154.457031 C 183.324219 149.832031 189.9375 141.089844 191.503906 128.796875 C 191.929688 125.496094 191.96875 122.128906 191.972656 118.792969 C 192.011719 90.921875 191.984375 63.046875 192.015625 35.171875 C 192.023438 29.117188 195.6875 24.355469 201.328125 22.785156 C 209.351562 20.542969 217.515625 26.152344 217.542969 34.546875 C 217.636719 65.953125 217.738281 97.355469 217.246094 128.75 C 216.941406 148.457031 206.882812 163.082031 190.644531 173.480469 C 154.464844 196.644531 106.617188 173.332031 102.292969 130.59375 C 102.046875 128.171875 102.542969 126.292969 104.472656 124.671875 C 111.496094 118.738281 118.445312 112.710938 125.429688 106.734375 C 125.910156 106.332031 126.484375 106.03125 127.65625 105.253906 Z M 127.65625 105.253906 "/></g><g clip-rule="nonzero" clip-path="url(#0ebbdac760)"><path style=" stroke:none;fill-rule:nonzero;fill:#9900cc;fill-opacity:1;" d="M 172.507812 35.664062 C 172.507812 34.375 172.296875 33.078125 172.074219 31.800781 C 170.511719 22.75 156.609375 19.542969 151.109375 24.890625 C 141.605469 34.128906 131.332031 42.578125 121.238281 51.191406 C 100.617188 68.800781 79.914062 86.320312 59.195312 103.816406 C 59.136719 103.867188 59.089844 103.917969 59.035156 103.96875 L 59.035156 137.660156 C 88.582031 112.546875 117.550781 87.925781 147.007812 62.886719 C 147.007812 64.726562 147.007812 65.824219 147.007812 66.917969 C 147.015625 85.769531 147 104.625 147.070312 123.476562 C 147.078125 125.484375 147.355469 127.59375 148.019531 129.472656 C 149.980469 135.019531 155.996094 138.53125 161.480469 137.59375 C 168.148438 136.453125 172.496094 131.292969 172.503906 124.261719 C 172.542969 94.734375 172.53125 65.199219 172.507812 35.664062 Z M 172.507812 35.664062 "/></g></g></svg>